<?xml version="1.0" encoding="utf-8"?>
<!DOCTYPE svg PUBLIC "-//W3C//DTD SVG 1.1//EN" "http://www.w3.org/Graphics/SVG/1.1/DTD/svg11.dtd">
<svg version="1.1" id="StrixEye" xmlns="http://www.w3.org/2000/svg" xmlns:xlink="http://www.w3.org/1999/xlink" x="0px" y="0px" viewBox="0 0 2405.501 549.052" enable-background="new 0 0 2405.501 549.052" xml:space="preserve">
<path fill="#ffffff" d="M375.86,211.25l-37.545,31.144l-40.487-23.874l-40.192,23.843L220.412,211.7L0,0l59.013,163.219
	l2.281,6.726l181.956,94.88l53.606,280.188l0.798,4.039l55.02-284.863l181.029-94.074l0.277-0.145l2.278-6.711L595.276,0.024
	L375.86,211.25z M78.775,155.207l-27.869-77.2l52.692,50.72c-2.866,4.355-4.79,10.123-4.79,15.333
	c0,14.696,11.956,26.652,26.653,26.652c5.726,0,11.437-2.087,16.043-5.493l51.206,49.233L78.775,155.207z M297.641,434.738
	L264.6,262.614l33.204-19.659l33.326,19.659L297.641,434.738z M516.83,155.216l-113.13,58.92l50.345-48.6
	c4.606,3.406,10.043,5.203,15.768,5.203c14.696,0,26.652-11.957,26.652-26.653c0-5.211-1.843-10.726-4.708-15.08l52.85-50.997
	L516.83,155.216z"/>
<g>
	<path fill="#ffffff" d="M706.314,414.943v-11.059h142.251l30.159-30.159v-60.821l-27.646-28.148H732.452l-35.186-35.186v-59.313
		l37.196-38.202h136.219v11.059H738.484l-30.16,30.159v52.779l27.144,27.646h118.627l35.688,35.688v67.355l-37.699,38.202H706.314z"
		/>
	<path fill="#ffffff" d="M1015.944,414.943l-37.196-38.202V163.114H937.53v-11.059h41.218v-73.89h11.059v73.89h75.9v11.059h-75.9
		v210.109l29.656,30.662h55.795v11.059H1015.944z"/>
	<path fill="#ffffff" d="M1130.546,414.943V152.055h11.059v48.255l43.73-48.255h82.436v11.059h-77.911l-48.255,51.773v200.057
		H1130.546z"/>
	<path fill="#ffffff" d="M1323.061,123.404V71.63h11.059v51.773H1323.061z M1323.061,414.943V152.055h11.059v262.888H1323.061z"/>
	<path fill="#ffffff" d="M1391.919,414.943l91.986-134.711l-91.483-128.177h12.063l88.468,123.151h10.053l88.467-123.151h12.566
		l-92.488,128.177l91.986,134.711h-12.064l-88.467-128.68h-10.053l-88.468,128.68H1391.919z"/>
	<path fill="#ffffff" d="M1701.047,414.943l-49.26-49.763V201.818l49.26-49.763h114.605l49.26,49.763v91.986h-185.479v63.837
		l32.673,33.176h148.283v24.127H1701.047z M1679.433,270.682h157.834v-62.329l-32.673-33.175h-92.488l-32.673,33.175V270.682z"/>
	<path fill="#ffffff" d="M1982.529,508.939l48.255-114.604h-14.577l-113.6-242.28h29.657l99.022,213.628h11.059l85.451-213.628
		h29.656l-146.775,356.884H1982.529z"/>
	<path fill="#ffffff" d="M2241.897,414.943l-49.26-49.763V201.818l49.26-49.763h114.605l49.26,49.763v91.986h-185.479v63.837
		l32.673,33.176h148.283v24.127H2241.897z M2220.283,270.682h157.834v-62.329l-32.673-33.175h-92.488l-32.673,33.175V270.682z"/>
</g>
</svg>
